<?xml version="1.0" encoding="utf-8"?>
<!-- Generator: Adobe Illustrator 16.0.0, SVG Export Plug-In . SVG Version: 6.00 Build 0)  -->
<!DOCTYPE svg PUBLIC "-//W3C//DTD SVG 1.1//EN" "http://www.w3.org/Graphics/SVG/1.1/DTD/svg11.dtd">
<svg version="1.1" id="Tag_1_" xmlns="http://www.w3.org/2000/svg" xmlns:xlink="http://www.w3.org/1999/xlink" x="0px" y="0px"
	 width="512px" height="512px" viewBox="0 0 512 512" enable-background="new 0 0 512 512" xml:space="preserve">
<circle id="Background_47_" fill="#FFCD54" cx="256" cy="256" r="256"/>
<path id="Shadow_48_" opacity="0.1" d="M295.95,508.891c107.848-16.901,193.359-101.129,212.177-208.33L399.14,193.762
	l-23.973-8.929l-71.166,0.532L295.5,175l-1.495,10.441l-52.505,0.393l-11.167-11L227,186.179L136.667,187L113.5,197l39.5,41
	l-28.333,4.167l19.5,16.833l-19.944,2.836l23.277,15.831l-22.588,2.13L139,296l-37,16L295.95,508.891z"/>
<g id="Tag">
	<g>
		<path fill="#4D4554" d="M118.582,195.947l19.941,8.201l-1.461,4.324l-24.266-10.278v-4.493l24.266-10.28l1.461,4.326
			L118.582,195.947z"/>
		<path fill="#DFE0E0" d="M145.993,184.376c1.198-0.299,2.78-0.618,4.746-0.955c1.967-0.337,4.241-0.505,6.825-0.505
			c1.872,0,3.444,0.253,4.718,0.758c1.273,0.506,2.34,1.246,3.202,2.22c0.262-0.188,0.674-0.45,1.235-0.787s1.255-0.664,2.079-0.982
			c0.822-0.318,1.74-0.599,2.752-0.843c1.011-0.243,2.097-0.365,3.258-0.365c2.247,0,4.081,0.328,5.505,0.982
			c1.423,0.656,2.536,1.583,3.342,2.781c0.805,1.198,1.348,2.621,1.629,4.269c0.281,1.648,0.421,3.445,0.421,5.393v16.401h-5.224
			v-15.278c0-1.722-0.084-3.201-0.253-4.438c-0.168-1.235-0.486-2.266-0.955-3.09c-0.468-0.823-1.104-1.432-1.909-1.825
			c-0.806-0.393-1.845-0.59-3.117-0.59c-1.761,0-3.212,0.234-4.354,0.703c-1.143,0.468-1.919,0.889-2.331,1.263
			c0.299,0.975,0.524,2.042,0.674,3.202c0.149,1.161,0.225,2.378,0.225,3.651v16.401h-5.224v-15.278c0-1.722-0.094-3.201-0.28-4.438
			c-0.188-1.235-0.516-2.266-0.983-3.09c-0.469-0.823-1.105-1.432-1.91-1.825c-0.806-0.393-1.825-0.59-3.061-0.59
			c-0.525,0-1.087,0.02-1.686,0.057c-0.6,0.037-1.171,0.084-1.713,0.141c-0.544,0.056-1.039,0.121-1.488,0.196
			c-0.45,0.075-0.75,0.132-0.899,0.168v24.659h-5.224V184.376z"/>
		<path fill="#DFE0E0" d="M192.727,198.194c0-2.584,0.373-4.84,1.123-6.769c0.749-1.928,1.741-3.529,2.978-4.803
			c1.235-1.272,2.658-2.228,4.269-2.865c1.609-0.636,3.258-0.954,4.943-0.954c3.932,0,6.945,1.227,9.043,3.679
			c2.097,2.453,3.146,6.188,3.146,11.206c0,0.225,0,0.516,0,0.87c0,0.356-0.02,0.685-0.057,0.983h-19.996
			c0.225,3.033,1.104,5.337,2.64,6.909c1.535,1.573,3.933,2.359,7.189,2.359c1.835,0,3.38-0.159,4.635-0.478
			c1.254-0.318,2.199-0.627,2.836-0.927l0.73,4.381c-0.637,0.337-1.751,0.693-3.342,1.067c-1.593,0.374-3.398,0.562-5.421,0.562
			c-2.547,0-4.746-0.385-6.6-1.151c-1.854-0.768-3.38-1.825-4.578-3.174c-1.198-1.348-2.088-2.949-2.668-4.803
			C193.016,202.435,192.727,200.404,192.727,198.194z M212.779,195.329c0.036-2.358-0.554-4.297-1.77-5.813
			c-1.218-1.517-2.893-2.274-5.027-2.274c-1.199,0-2.256,0.234-3.174,0.701c-0.918,0.47-1.694,1.078-2.331,1.826
			c-0.637,0.75-1.133,1.61-1.488,2.584c-0.356,0.975-0.59,1.966-0.702,2.977H212.779z"/>
		<path fill="#DFE0E0" d="M230.641,183.534h11.065v4.381h-11.065v13.48c0,1.461,0.111,2.668,0.337,3.623
			c0.225,0.955,0.562,1.704,1.011,2.247s1.011,0.927,1.686,1.151c0.674,0.225,1.46,0.337,2.358,0.337
			c1.573,0,2.837-0.178,3.792-0.534c0.955-0.354,1.619-0.607,1.994-0.758l1.011,4.325c-0.525,0.263-1.442,0.59-2.753,0.983
			c-1.311,0.393-2.808,0.59-4.493,0.59c-1.985,0-3.623-0.253-4.915-0.759s-2.331-1.264-3.117-2.275
			c-0.786-1.01-1.339-2.255-1.657-3.734c-0.318-1.479-0.478-3.192-0.478-5.14v-26.063l5.225-0.898V183.534z"/>
		<path fill="#DFE0E0" d="M257.771,182.804c2.096,0,3.865,0.271,5.308,0.814c1.44,0.543,2.602,1.311,3.481,2.303
			c0.88,0.993,1.508,2.172,1.883,3.539c0.374,1.367,0.562,2.874,0.562,4.521v18.255c-0.449,0.075-1.077,0.179-1.882,0.31
			c-0.806,0.131-1.713,0.252-2.725,0.364c-1.011,0.113-2.106,0.216-3.286,0.31c-1.179,0.093-2.35,0.141-3.51,0.141
			c-1.648,0-3.165-0.169-4.55-0.506c-1.386-0.337-2.584-0.871-3.595-1.601c-1.011-0.73-1.798-1.694-2.359-2.893
			c-0.562-1.199-0.843-2.641-0.843-4.326c0-1.609,0.327-2.995,0.983-4.156c0.654-1.16,1.545-2.097,2.668-2.808
			c1.123-0.712,2.434-1.236,3.932-1.573c1.497-0.337,3.07-0.506,4.719-0.506c0.523,0,1.066,0.028,1.628,0.085
			c0.563,0.056,1.096,0.131,1.602,0.225c0.505,0.094,0.944,0.178,1.319,0.253c0.374,0.074,0.637,0.131,0.787,0.168v-1.46
			c0-0.861-0.094-1.714-0.281-2.557c-0.188-0.842-0.524-1.591-1.011-2.246c-0.487-0.655-1.151-1.18-1.994-1.573
			c-0.843-0.393-1.938-0.59-3.286-0.59c-1.723,0-3.229,0.122-4.521,0.365c-1.292,0.244-2.256,0.497-2.893,0.758l-0.618-4.324
			c0.675-0.3,1.798-0.59,3.37-0.871C254.231,182.943,255.935,182.804,257.771,182.804z M258.219,208.979
			c1.236,0,2.331-0.028,3.286-0.084s1.75-0.159,2.388-0.309v-8.707c-0.375-0.187-0.983-0.346-1.826-0.478
			c-0.842-0.131-1.863-0.196-3.062-0.196c-0.786,0-1.619,0.057-2.499,0.168c-0.88,0.113-1.685,0.348-2.415,0.703
			c-0.73,0.356-1.339,0.842-1.826,1.46c-0.486,0.618-0.729,1.433-0.729,2.443c0,1.873,0.599,3.174,1.797,3.904
			C254.53,208.613,256.159,208.979,258.219,208.979z"/>
		<path fill="#4D4554" d="M295.515,183.534h11.066v4.381h-11.066v13.48c0,1.461,0.112,2.668,0.337,3.623s0.563,1.704,1.012,2.247
			s1.011,0.927,1.685,1.151s1.461,0.337,2.359,0.337c1.573,0,2.837-0.178,3.791-0.534c0.955-0.354,1.619-0.607,1.994-0.758
			l1.012,4.325c-0.525,0.263-1.442,0.59-2.753,0.983c-1.311,0.393-2.808,0.59-4.493,0.59c-1.985,0-3.623-0.253-4.915-0.759
			s-2.331-1.264-3.117-2.275c-0.787-1.01-1.339-2.255-1.657-3.734c-0.318-1.479-0.478-3.192-0.478-5.14v-26.063l5.224-0.898V183.534
			z"/>
		<path fill="#4D4554" d="M322.646,182.804c2.096,0,3.865,0.271,5.308,0.814c1.44,0.543,2.603,1.311,3.482,2.303
			c0.879,0.993,1.507,2.172,1.882,3.539c0.374,1.367,0.562,2.874,0.562,4.521v18.255c-0.449,0.075-1.077,0.179-1.882,0.31
			c-0.806,0.131-1.713,0.252-2.725,0.364c-1.011,0.113-2.105,0.216-3.286,0.31c-1.179,0.093-2.35,0.141-3.51,0.141
			c-1.648,0-3.165-0.169-4.551-0.506c-1.385-0.337-2.584-0.871-3.594-1.601c-1.012-0.73-1.798-1.694-2.359-2.893
			c-0.563-1.199-0.843-2.641-0.843-4.326c0-1.609,0.327-2.995,0.982-4.156c0.655-1.16,1.545-2.097,2.668-2.808
			c1.124-0.712,2.434-1.236,3.933-1.573c1.497-0.337,3.07-0.506,4.719-0.506c0.523,0,1.067,0.028,1.629,0.085
			c0.562,0.056,1.095,0.131,1.601,0.225s0.945,0.178,1.319,0.253c0.374,0.074,0.637,0.131,0.787,0.168v-1.46
			c0-0.861-0.094-1.714-0.281-2.557c-0.188-0.842-0.524-1.591-1.011-2.246c-0.487-0.655-1.151-1.18-1.994-1.573
			c-0.843-0.393-1.938-0.59-3.286-0.59c-1.723,0-3.23,0.122-4.522,0.365c-1.291,0.244-2.256,0.497-2.893,0.758l-0.617-4.324
			c0.674-0.3,1.798-0.59,3.37-0.871S320.81,182.804,322.646,182.804z M323.094,208.979c1.236,0,2.331-0.028,3.286-0.084
			s1.75-0.159,2.388-0.309v-8.707c-0.375-0.187-0.983-0.346-1.826-0.478c-0.842-0.131-1.862-0.196-3.061-0.196
			c-0.787,0-1.62,0.057-2.5,0.168c-0.881,0.113-1.686,0.348-2.416,0.703c-0.729,0.356-1.339,0.842-1.825,1.46
			c-0.487,0.618-0.729,1.433-0.729,2.443c0,1.873,0.598,3.174,1.797,3.904C319.405,208.613,321.034,208.979,323.094,208.979z"/>
		<path fill="#4D4554" d="M360.84,209.821c-0.449,0.3-1.32,0.684-2.612,1.151c-1.292,0.469-2.8,0.702-4.521,0.702
			c-1.761,0-3.418-0.28-4.972-0.843c-1.554-0.562-2.911-1.432-4.072-2.612c-1.16-1.179-2.078-2.647-2.752-4.409
			c-0.674-1.759-1.011-3.855-1.011-6.291c0-2.134,0.317-4.09,0.955-5.869c0.636-1.778,1.563-3.314,2.779-4.606
			c1.218-1.292,2.705-2.303,4.467-3.033c1.759-0.729,3.744-1.095,5.953-1.095c2.435,0,4.559,0.178,6.376,0.533
			c1.815,0.356,3.342,0.684,4.577,0.983v26.063c0,4.493-1.161,7.752-3.482,9.773c-2.322,2.022-5.842,3.033-10.56,3.033
			c-1.836,0-3.567-0.149-5.195-0.449c-1.63-0.3-3.043-0.655-4.241-1.066l0.955-4.551c1.048,0.412,2.331,0.777,3.848,1.096
			c1.517,0.317,3.098,0.478,4.746,0.478c3.107,0,5.345-0.618,6.712-1.854c1.367-1.236,2.051-3.202,2.051-5.898V209.821z
			 M360.783,188.14c-0.524-0.149-1.227-0.29-2.106-0.421s-2.069-0.197-3.566-0.197c-2.809,0-4.971,0.919-6.487,2.752
			c-1.517,1.836-2.275,4.27-2.275,7.303c0,1.686,0.215,3.127,0.646,4.325c0.431,1.199,1.012,2.19,1.741,2.978
			c0.73,0.786,1.573,1.366,2.528,1.74c0.955,0.375,1.938,0.562,2.948,0.562c1.386,0,2.659-0.196,3.82-0.589
			c1.16-0.394,2.078-0.852,2.752-1.376V188.14z"/>
		<path fill="#4D4554" d="M373.477,187.747l1.461-4.326l24.266,10.28v4.493l-24.266,10.278l-1.461-4.324l19.941-8.201
			L373.477,187.747z"/>
	</g>
	<g>
		<path fill="#4D4554" d="M107.798,310.156l19.941,8.201l-1.461,4.324l-24.266-10.279v-4.493l24.266-10.279l1.461,4.325
			L107.798,310.156z"/>
		<path fill="#DFE0E0" d="M134.704,337.342h-5.337l19.042-54.372h5.224L134.704,337.342z"/>
		<path fill="#DFE0E0" d="M156.777,298.585c1.198-0.299,2.781-0.618,4.747-0.955s4.24-0.506,6.824-0.506
			c1.872,0,3.445,0.253,4.719,0.758c1.272,0.506,2.34,1.246,3.201,2.22c0.262-0.187,0.674-0.449,1.236-0.787
			c0.562-0.337,1.254-0.664,2.078-0.982c0.823-0.317,1.741-0.599,2.752-0.842s2.097-0.366,3.258-0.366
			c2.247,0,4.081,0.329,5.505,0.983c1.422,0.656,2.536,1.582,3.342,2.78c0.805,1.199,1.349,2.622,1.629,4.269
			c0.281,1.649,0.422,3.446,0.422,5.393v16.401h-5.224v-15.277c0-1.722-0.085-3.202-0.253-4.438
			c-0.169-1.235-0.487-2.266-0.955-3.089c-0.469-0.823-1.105-1.432-1.91-1.825c-0.806-0.394-1.845-0.59-3.117-0.59
			c-1.761,0-3.211,0.234-4.354,0.702s-1.919,0.89-2.331,1.263c0.3,0.976,0.524,2.043,0.675,3.203c0.148,1.16,0.224,2.377,0.224,3.65
			v16.401h-5.224v-15.277c0-1.722-0.094-3.202-0.28-4.438c-0.188-1.235-0.516-2.266-0.983-3.089
			c-0.469-0.823-1.104-1.432-1.909-1.825c-0.806-0.394-1.826-0.59-3.062-0.59c-0.525,0-1.087,0.02-1.686,0.057
			c-0.6,0.036-1.171,0.084-1.713,0.14c-0.543,0.056-1.039,0.122-1.488,0.196c-0.449,0.076-0.75,0.132-0.898,0.169v24.658h-5.225
			V298.585z"/>
		<path fill="#DFE0E0" d="M203.511,312.402c0-2.584,0.374-4.839,1.123-6.769c0.749-1.928,1.741-3.528,2.978-4.802
			c1.235-1.272,2.658-2.228,4.269-2.865c1.609-0.636,3.258-0.954,4.943-0.954c3.932,0,6.945,1.226,9.043,3.679
			c2.097,2.453,3.146,6.188,3.146,11.205c0,0.226,0,0.516,0,0.871c0,0.356-0.019,0.684-0.056,0.983h-19.997
			c0.225,3.033,1.104,5.336,2.64,6.908c1.535,1.573,3.933,2.36,7.19,2.36c1.834,0,3.379-0.159,4.634-0.478
			c1.254-0.318,2.199-0.627,2.836-0.928l0.73,4.381c-0.637,0.338-1.751,0.694-3.342,1.067c-1.592,0.374-3.398,0.562-5.42,0.562
			c-2.548,0-4.747-0.385-6.601-1.151s-3.38-1.825-4.577-3.174c-1.199-1.347-2.089-2.949-2.669-4.802
			C203.801,316.643,203.511,314.613,203.511,312.402z M223.563,309.538c0.037-2.359-0.553-4.298-1.77-5.814
			c-1.218-1.516-2.893-2.274-5.027-2.274c-1.199,0-2.257,0.234-3.174,0.702c-0.918,0.47-1.694,1.077-2.331,1.825
			c-0.637,0.75-1.133,1.611-1.488,2.584c-0.356,0.975-0.59,1.967-0.702,2.978H223.563z"/>
		<path fill="#DFE0E0" d="M241.425,297.742h11.065v4.381h-11.065v13.48c0,1.461,0.112,2.668,0.337,3.623s0.563,1.705,1.011,2.248
			c0.45,0.542,1.012,0.926,1.686,1.151c0.674,0.224,1.46,0.336,2.359,0.336c1.572,0,2.837-0.177,3.791-0.533
			c0.955-0.355,1.619-0.608,1.994-0.758l1.012,4.324c-0.525,0.263-1.442,0.59-2.753,0.983s-2.808,0.59-4.493,0.59
			c-1.985,0-3.623-0.253-4.915-0.758c-1.292-0.506-2.331-1.265-3.117-2.276c-0.787-1.01-1.34-2.255-1.657-3.734
			c-0.319-1.479-0.478-3.191-0.478-5.14v-26.063l5.224-0.897V297.742z"/>
		<path fill="#DFE0E0" d="M268.555,297.013c2.097,0,3.866,0.271,5.308,0.813c1.441,0.544,2.603,1.312,3.482,2.304
			s1.508,2.171,1.883,3.538c0.373,1.367,0.562,2.875,0.562,4.521v18.255c-0.45,0.075-1.077,0.179-1.883,0.31
			c-0.805,0.132-1.713,0.253-2.724,0.364c-1.011,0.113-2.106,0.216-3.286,0.31c-1.18,0.093-2.351,0.141-3.511,0.141
			c-1.648,0-3.165-0.169-4.55-0.506c-1.386-0.336-2.584-0.87-3.595-1.601c-1.011-0.729-1.797-1.694-2.358-2.893
			c-0.563-1.198-0.843-2.64-0.843-4.325c0-1.61,0.327-2.996,0.982-4.157c0.655-1.16,1.545-2.096,2.668-2.808
			c1.124-0.711,2.434-1.235,3.932-1.573c1.498-0.337,3.07-0.505,4.719-0.505c0.523,0,1.067,0.027,1.629,0.084
			c0.562,0.056,1.096,0.132,1.601,0.225c0.506,0.094,0.945,0.179,1.32,0.253c0.374,0.075,0.636,0.132,0.786,0.168v-1.46
			c0-0.86-0.094-1.714-0.28-2.556c-0.188-0.843-0.524-1.592-1.012-2.247c-0.486-0.655-1.15-1.18-1.994-1.573
			c-0.842-0.393-1.938-0.59-3.285-0.59c-1.723,0-3.23,0.122-4.522,0.366s-2.256,0.496-2.893,0.758l-0.617-4.325
			c0.674-0.299,1.797-0.59,3.37-0.871C265.016,297.152,266.719,297.013,268.555,297.013z M269.004,323.188
			c1.235,0,2.331-0.028,3.286-0.084c0.955-0.057,1.75-0.159,2.387-0.31v-8.707c-0.375-0.186-0.982-0.345-1.825-0.478
			c-0.843-0.13-1.863-0.196-3.062-0.196c-0.786,0-1.62,0.057-2.499,0.169c-0.881,0.112-1.686,0.347-2.416,0.702
			c-0.729,0.356-1.339,0.842-1.825,1.461c-0.487,0.617-0.729,1.432-0.729,2.442c0,1.873,0.598,3.174,1.797,3.904
			C265.315,322.822,266.944,323.188,269.004,323.188z"/>
		<path fill="#4D4554" d="M306.299,297.742h11.066v4.381h-11.066v13.48c0,1.461,0.112,2.668,0.337,3.623
			c0.226,0.955,0.563,1.705,1.012,2.248c0.449,0.542,1.011,0.926,1.686,1.151c0.674,0.224,1.46,0.336,2.358,0.336
			c1.573,0,2.837-0.177,3.792-0.533c0.955-0.355,1.619-0.608,1.994-0.758l1.011,4.324c-0.525,0.263-1.442,0.59-2.753,0.983
			s-2.808,0.59-4.493,0.59c-1.985,0-3.623-0.253-4.915-0.758c-1.292-0.506-2.331-1.265-3.117-2.276
			c-0.786-1.01-1.339-2.255-1.657-3.734c-0.318-1.479-0.478-3.191-0.478-5.14v-26.063l5.224-0.897V297.742z"/>
		<path fill="#4D4554" d="M333.43,297.013c2.096,0,3.865,0.271,5.308,0.813c1.441,0.544,2.603,1.312,3.482,2.304
			c0.879,0.992,1.507,2.171,1.882,3.538c0.374,1.367,0.562,2.875,0.562,4.521v18.255c-0.449,0.075-1.077,0.179-1.882,0.31
			c-0.806,0.132-1.713,0.253-2.724,0.364c-1.012,0.113-2.106,0.216-3.286,0.31c-1.18,0.093-2.351,0.141-3.511,0.141
			c-1.648,0-3.165-0.169-4.55-0.506c-1.386-0.336-2.584-0.87-3.595-1.601c-1.011-0.729-1.798-1.694-2.359-2.893
			s-0.843-2.64-0.843-4.325c0-1.61,0.327-2.996,0.983-4.157c0.654-1.16,1.545-2.096,2.668-2.808
			c1.124-0.711,2.434-1.235,3.932-1.573c1.498-0.337,3.07-0.505,4.719-0.505c0.523,0,1.067,0.027,1.629,0.084
			c0.562,0.056,1.095,0.132,1.601,0.225c0.506,0.094,0.945,0.179,1.32,0.253c0.374,0.075,0.636,0.132,0.786,0.168v-1.46
			c0-0.86-0.281-3.418-0.281-2.556c0,17.169-0.524-1.592-1.011-2.247c-0.487-0.655-1.151-1.18-1.994-1.573
			c-0.843-0.393-1.938-0.59-3.285-0.59c-1.724,0-3.23,0.122-4.522,0.366s-2.256,0.496-2.893,0.758l-0.618-4.325
			c0.675-0.299,1.798-0.59,3.37-0.871C329.891,297.152,331.594,297.013,333.43,297.013z M333.879,323.188
			c1.235,0,2.331-0.028,3.286-0.084c0.955-0.057,1.749-0.159,2.387-0.31v-8.707c-0.375-0.186-0.983-0.345-1.825-0.478
			c-0.843-0.13-1.863-0.196-3.062-0.196c-0.786,0-1.62,0.057-2.499,0.169c-0.881,0.112-1.686,0.347-2.416,0.702
			c-0.729,0.356-1.339,0.842-1.825,1.461c-0.487,0.617-0.73,1.432-0.73,2.442c0,1.873,0.599,3.174,1.797,3.904
			S331.818,323.188,333.879,323.188z"/>
		<path fill="#4D4554" d="M371.624,324.03c-0.449,0.299-1.32,0.683-2.612,1.151c-1.291,0.469-2.8,0.701-4.521,0.701
			c-1.761,0-3.417-0.28-4.971-0.843c-1.555-0.562-2.912-1.432-4.073-2.611c-1.16-1.18-2.078-2.648-2.752-4.409
			c-0.674-1.76-1.011-3.856-1.011-6.291c0-2.135,0.317-4.091,0.955-5.869c0.636-1.779,1.563-3.315,2.78-4.606
			c1.217-1.292,2.704-2.304,4.466-3.033c1.759-0.729,3.744-1.096,5.953-1.096c2.435,0,4.56,0.179,6.376,0.534
			c1.815,0.356,3.342,0.684,4.577,0.983v26.063c0,4.493-1.16,7.751-3.482,9.773c-2.322,2.021-5.841,3.032-10.56,3.032
			c-1.835,0-3.566-0.148-5.195-0.448c-1.63-0.301-3.043-0.655-4.241-1.067l0.955-4.55c1.048,0.411,2.331,0.776,3.848,1.095
			c1.517,0.317,3.098,0.479,4.746,0.479c3.108,0,5.345-0.618,6.713-1.854c1.366-1.235,2.05-3.201,2.05-5.897V324.03z
			 M371.567,302.349c-0.524-0.149-1.227-0.291-2.106-0.422s-2.069-0.196-3.566-0.196c-2.809,0-4.971,0.918-6.487,2.752
			c-1.517,1.835-2.275,4.269-2.275,7.302c0,1.686,0.216,3.128,0.646,4.325c0.431,1.199,1.012,2.191,1.742,2.978
			c0.729,0.787,1.572,1.367,2.527,1.74c0.955,0.376,1.938,0.562,2.949,0.562c1.385,0,2.658-0.195,3.819-0.589
			c1.16-0.393,2.078-0.851,2.752-1.376V302.349z"/>
		<path fill="#4D4554" d="M384.262,301.955l1.46-4.325l24.266,10.279v4.493l-24.266,10.279l-1.46-4.324l19.94-8.201L384.262,301.955
			z"/>
	</g>
	<g>
		<rect x="124.223" y="232.164" fill="#DFE0E0" width="271.259" height="10.338"/>
		<rect x="124.223" y="251.498" fill="#4D4554" width="271.259" height="10.338"/>
		<rect x="124.223" y="269.497" fill="#6DC497" width="271.259" height="10.339"/>
	</g>
</g>
</svg>
